# MagicaVoxel @ Ephtracy

# group
o grass

# material
mtllib farm.mtl
usemtl palette

# normals
vn -1 0 0
vn 1 0 0
vn 0 0 1
vn 0 0 -1
vn 0 -1 0
vn 0 1 0

# texcoords
vt 0.689453 0.5
vt 0.693359 0.5
vt 0.697266 0.5

# verts
v -1.6 0 1.6
v -1.6 0 -1.6
v -1.6 0.2 1.6
v -1.6 0.2 -1.6
v 1.6 0 1.6
v 1.6 0 -1.6
v 1.6 0.2 1.6
v 1.6 0.2 -1.6
v -1.6 0 1.6
v -1.6 0.2 1.6
v 1.6 0 1.6
v 1.6 0.2 1.6
v -1.6 0 -1.6
v -1.6 0.2 -1.6
v 1.6 0 -1.6
v 1.6 0.2 -1.6
v -1.6 0 1.6
v 1.6 0 1.6
v -1.6 0 -1.6
v 1.6 0 -1.6
v -1.6 0.2 1.6
v 1.6 0.2 1.6
v -1 0.2 1.5
v -0.8 0.2 1.5
v -1 0.2 1.4
v -0.9 0.2 1.4
v -0.8 0.2 1.4
v -0.7 0.2 1.4
v 0.5 0.2 1.4
v 0.7 0.2 1.4
v -0.9 0.2 1.3
v -0.7 0.2 1.3
v -0.4 0.2 1.3
v -0.2 0.2 1.3
v 0.5 0.2 1.3
v 0.7 0.2 1.3
v -1.3 0.2 1.2
v -1.2 0.2 1.2
v -0.3 0.2 1.2
v -0.2 0.2 1.2
v 0.8 0.2 1.2
v 0.9 0.2 1.2
v 1.1 0.2 1.2
v 1.2 0.2 1.2
v -1.4 0.2 1.1
v -1.3 0.2 1.1
v -0.4 0.2 1.1
v -0.3 0.2 1.1
v 0.6 0.2 1.1
v 0.8 0.2 1.1
v -1.4 0.2 1
v -1.2 0.2 1
v 0.6 0.2 1
v 0.9 0.2 1
v 1.1 0.2 1
v 1.2 0.2 1
v -0.3 0.2 0.9
v -0.1 0.2 0.9
v -0.4 0.2 0.8
v -0.3 0.2 0.8
v -0.2 0.2 0.8
v -0.1 0.2 0.8
v 1 0.2 0.8
v 1.2 0.2 0.8
v -0.4 0.2 0.7
v -0.2 0.2 0.7
v 1 0.2 0.7
v 1.1 0.2 0.7
v -1.4 0.2 0.6
v -1.3 0.2 0.6
v -0.7 0.2 0.6
v -0.6 0.2 0.6
v 0.2 0.2 0.6
v 0.4 0.2 0.6
v -1.3 0.2 0.5
v -1.2 0.2 0.5
v -0.8 0.2 0.5
v -0.7 0.2 0.5
v 0.2 0.2 0.5
v 0.3 0.2 0.5
v 1.1 0.2 0.5
v 1.2 0.2 0.5
v -1.4 0.2 0.4
v -1.2 0.2 0.4
v -0.8 0.2 0.4
v -0.6 0.2 0.4
v -0.1 0.2 0.4
v -2.23517e-008 0.2 0.4
v 0.3 0.2 0.4
v 0.4 0.2 0.4
v -0.2 0.2 0.3
v -0.1 0.2 0.3
v 0.6 0.2 0.3
v 0.7 0.2 0.3
v -0.2 0.2 0.2
v -2.23517e-008 0.2 0.2
v 0.5 0.2 0.2
v 0.6 0.2 0.2
v 1.2 0.2 0.2
v 1.4 0.2 0.2
v 0.5 0.2 0.1
v 0.7 0.2 0.1
v 1.2 0.2 0.1
v 1.3 0.2 0.1
v 1.3 0.2 2.23517e-008
v 1.4 0.2 2.23517e-008
v -1 0.2 -0.1
v -0.8 0.2 -0.1
v -2.23517e-008 0.2 -0.1
v 0.2 0.2 -0.1
v -1 0.2 -0.2
v -0.9 0.2 -0.2
v 0.1 0.2 -0.2
v 0.2 0.2 -0.2
v 0.5 0.2 -0.2
v 0.7 0.2 -0.2
v -1.3 0.2 -0.3
v -1.2 0.2 -0.3
v -0.9 0.2 -0.3
v -0.8 0.2 -0.3
v -2.23517e-008 0.2 -0.3
v 0.1 0.2 -0.3
v 0.5 0.2 -0.3
v 0.6 0.2 -0.3
v 1.3 0.2 -0.3
v 1.4 0.2 -0.3
v -1.2 0.2 -0.4
v -1.1 0.2 -0.4
v -0.3 0.2 -0.4
v -0.2 0.2 -0.4
v 0.6 0.2 -0.4
v 0.7 0.2 -0.4
v 1.2 0.2 -0.4
v 1.3 0.2 -0.4
v -1.3 0.2 -0.5
v -1.1 0.2 -0.5
v 0.1 0.2 -0.5
v 0.3 0.2 -0.5
v 1.3 0.2 -0.5
v 1.4 0.2 -0.5
v -0.3 0.2 -0.6
v -0.2 0.2 -0.6
v 0.2 0.2 -0.6
v 0.3 0.2 -0.6
v 1.2 0.2 -0.6
v 1.3 0.2 -0.6
v -1 0.2 -0.7
v -0.8 0.2 -0.7
v 0.1 0.2 -0.7
v 0.2 0.2 -0.7
v -1.1 0.2 -0.8
v -1 0.2 -0.8
v -0.9 0.2 -0.8
v -0.8 0.2 -0.8
v 0.4 0.2 -0.8
v 0.5 0.2 -0.8
v 1.2 0.2 -0.8
v 1.4 0.2 -0.8
v -1.5 0.2 -0.9
v -1.4 0.2 -0.9
v -1.1 0.2 -0.9
v -0.9 0.2 -0.9
v 0.3 0.2 -0.9
v 0.4 0.2 -0.9
v 1.1 0.2 -0.9
v 1.2 0.2 -0.9
v 1.3 0.2 -0.9
v 1.4 0.2 -0.9
v -1.4 0.2 -1
v -1.3 0.2 -1
v -0.4 0.2 -1
v -0.2 0.2 -1
v 0.4 0.2 -1
v 0.5 0.2 -1
v 0.8 0.2 -1
v 1 0.2 -1
v 1.1 0.2 -1
v 1.3 0.2 -1
v -1.5 0.2 -1.1
v -1.3 0.2 -1.1
v -0.4 0.2 -1.1
v -0.2 0.2 -1.1
v 0.3 0.2 -1.1
v 0.4 0.2 -1.1
v 0.8 0.2 -1.1
v 0.9 0.2 -1.1
v 1 0.2 -1.1
v 1.1 0.2 -1.1
v -1.1 0.2 -1.2
v -1 0.2 -1.2
v 0.2 0.2 -1.2
v 0.3 0.2 -1.2
v 0.9 0.2 -1.2
v 1.1 0.2 -1.2
v -1.3 0.2 -1.3
v -1.1 0.2 -1.3
v 0.1 0.2 -1.3
v 0.2 0.2 -1.3
v 0.9 0.2 -1.3
v 1.1 0.2 -1.3
v -1.2 0.2 -1.4
v -1 0.2 -1.4
v -0.5 0.2 -1.4
v -0.3 0.2 -1.4
v 0.1 0.2 -1.4
v 0.3 0.2 -1.4
v 0.9 0.2 -1.4
v 1 0.2 -1.4
v 1.1 0.2 -1.4
v 1.2 0.2 -1.4
v -1.3 0.2 -1.5
v -1.2 0.2 -1.5
v -0.5 0.2 -1.5
v -0.3 0.2 -1.5
v 1 0.2 -1.5
v 1.2 0.2 -1.5
v -1.6 0.2 -1.6
v 1.6 0.2 -1.6

# faces
f 3/1/1 2/1/1 1/1/1
f 4/1/1 2/1/1 3/1/1
f 5/1/2 6/1/2 7/1/2
f 7/1/2 6/1/2 8/1/2
f 11/1/3 10/1/3 9/1/3
f 12/1/3 10/1/3 11/1/3
f 13/1/4 14/1/4 15/1/4
f 15/1/4 14/1/4 16/1/4
f 19/1/5 18/1/5 17/1/5
f 20/1/5 18/1/5 19/1/5
f 21/1/6 22/1/6 23/1/6
f 23/1/6 22/1/6 24/1/6
f 21/1/6 23/1/6 25/1/6
f 23/2/6 24/2/6 25/2/6
f 25/2/6 24/2/6 26/2/6
f 24/1/6 22/1/6 27/1/6
f 26/2/6 24/2/6 27/2/6
f 27/1/6 22/1/6 28/1/6
f 28/1/6 22/1/6 29/1/6
f 29/1/6 22/1/6 30/1/6
f 25/1/6 26/1/6 31/1/6
f 26/2/6 27/2/6 31/2/6
f 27/2/6 28/2/6 31/2/6
f 28/1/6 29/1/6 32/1/6
f 31/2/6 28/2/6 32/2/6
f 32/1/6 29/1/6 33/1/6
f 33/1/6 29/1/6 34/1/6
f 29/3/6 30/3/6 35/3/6
f 34/1/6 29/1/6 35/1/6
f 30/1/6 22/1/6 36/1/6
f 35/3/6 30/3/6 36/3/6
f 21/1/6 25/1/6 37/1/6
f 25/1/6 31/1/6 37/1/6
f 31/1/6 32/1/6 37/1/6
f 32/1/6 33/1/6 37/1/6
f 37/1/6 33/1/6 38/1/6
f 33/3/6 34/3/6 39/3/6
f 34/1/6 35/1/6 40/1/6
f 39/3/6 34/3/6 40/3/6
f 35/1/6 36/1/6 40/1/6
f 36/1/6 22/1/6 41/1/6
f 40/1/6 36/1/6 41/1/6
f 41/1/6 22/1/6 42/1/6
f 42/1/6 22/1/6 43/1/6
f 43/1/6 22/1/6 44/1/6
f 21/1/6 37/1/6 45/1/6
f 37/3/6 38/3/6 46/3/6
f 45/1/6 37/1/6 46/1/6
f 33/3/6 39/3/6 47/3/6
f 38/1/6 33/1/6 47/1/6
f 39/1/6 40/1/6 48/1/6
f 47/3/6 39/3/6 48/3/6
f 40/1/6 41/1/6 48/1/6
f 48/1/6 41/1/6 49/1/6
f 41/2/6 42/2/6 50/2/6
f 49/1/6 41/1/6 50/1/6
f 45/3/6 46/3/6 51/3/6
f 21/1/6 45/1/6 51/1/6
f 46/3/6 38/3/6 52/3/6
f 51/3/6 46/3/6 52/3/6
f 38/1/6 47/1/6 52/1/6
f 47/1/6 48/1/6 52/1/6
f 48/1/6 49/1/6 52/1/6
f 49/2/6 50/2/6 53/2/6
f 52/1/6 49/1/6 53/1/6
f 42/1/6 43/1/6 54/1/6
f 53/2/6 50/2/6 54/2/6
f 50/2/6 42/2/6 54/2/6
f 43/3/6 44/3/6 55/3/6
f 54/1/6 43/1/6 55/1/6
f 44/1/6 22/1/6 56/1/6
f 55/3/6 44/3/6 56/3/6
f 52/1/6 53/1/6 57/1/6
f 53/1/6 54/1/6 57/1/6
f 55/1/6 56/1/6 57/1/6
f 54/1/6 55/1/6 57/1/6
f 51/1/6 52/1/6 57/1/6
f 57/1/6 56/1/6 58/1/6
f 51/1/6 57/1/6 59/1/6
f 57/2/6 58/2/6 60/2/6
f 59/1/6 57/1/6 60/1/6
f 60/2/6 58/2/6 61/2/6
f 58/1/6 56/1/6 62/1/6
f 61/2/6 58/2/6 62/2/6
f 62/1/6 56/1/6 63/1/6
f 56/1/6 22/1/6 64/1/6
f 63/1/6 56/1/6 64/1/6
f 60/2/6 61/2/6 65/2/6
f 51/1/6 59/1/6 65/1/6
f 59/2/6 60/2/6 65/2/6
f 62/1/6 63/1/6 66/1/6
f 65/2/6 61/2/6 66/2/6
f 61/1/6 62/1/6 66/1/6
f 63/2/6 64/2/6 67/2/6
f 66/1/6 63/1/6 67/1/6
f 67/2/6 64/2/6 68/2/6
f 21/1/6 51/1/6 69/1/6
f 51/1/6 65/1/6 69/1/6
f 67/1/6 68/1/6 69/1/6
f 66/1/6 67/1/6 69/1/6
f 65/1/6 66/1/6 69/1/6
f 69/1/6 68/1/6 70/1/6
f 70/1/6 68/1/6 71/1/6
f 71/1/6 68/1/6 72/1/6
f 72/1/6 68/1/6 73/1/6
f 73/1/6 68/1/6 74/1/6
f 69/2/6 70/2/6 75/2/6
f 70/1/6 71/1/6 75/1/6
f 75/1/6 71/1/6 76/1/6
f 76/1/6 71/1/6 77/1/6
f 71/3/6 72/3/6 78/3/6
f 77/1/6 71/1/6 78/1/6
f 73/3/6 74/3/6 79/3/6
f 72/1/6 73/1/6 79/1/6
f 79/3/6 74/3/6 80/3/6
f 68/2/6 64/2/6 81/2/6
f 74/1/6 68/1/6 81/1/6
f 64/1/6 22/1/6 82/1/6
f 81/2/6 64/2/6 82/2/6
f 21/1/6 69/1/6 83/1/6
f 69/2/6 75/2/6 83/2/6
f 75/2/6 76/2/6 83/2/6
f 76/1/6 77/1/6 84/1/6
f 83/2/6 76/2/6 84/2/6
f 77/3/6 78/3/6 85/3/6
f 84/1/6 77/1/6 85/1/6
f 79/1/6 80/1/6 86/1/6
f 85/3/6 78/3/6 86/3/6
f 78/3/6 72/3/6 86/3/6
f 72/1/6 79/1/6 86/1/6
f 86/1/6 80/1/6 87/1/6
f 87/1/6 80/1/6 88/1/6
f 80/3/6 74/3/6 89/3/6
f 88/1/6 80/1/6 89/1/6
f 74/1/6 81/1/6 90/1/6
f 89/3/6 74/3/6 90/3/6
f 81/1/6 82/1/6 90/1/6
f 84/1/6 85/1/6 91/1/6
f 86/1/6 87/1/6 91/1/6
f 83/1/6 84/1/6 91/1/6
f 85/1/6 86/1/6 91/1/6
f 87/2/6 88/2/6 92/2/6
f 91/1/6 87/1/6 92/1/6
f 88/1/6 89/1/6 93/1/6
f 90/1/6 82/1/6 93/1/6
f 89/1/6 90/1/6 93/1/6
f 93/1/6 82/1/6 94/1/6
f 83/1/6 91/1/6 95/1/6
f 91/2/6 92/2/6 95/2/6
f 92/2/6 88/2/6 96/2/6
f 95/2/6 92/2/6 96/2/6
f 88/1/6 93/1/6 96/1/6
f 96/1/6 93/1/6 97/1/6
f 93/2/6 94/2/6 98/2/6
f 97/1/6 93/1/6 98/1/6
f 94/1/6 82/1/6 99/1/6
f 82/1/6 22/1/6 99/1/6
f 99/1/6 22/1/6 100/1/6
f 97/2/6 98/2/6 101/2/6
f 96/1/6 97/1/6 101/1/6
f 95/1/6 96/1/6 101/1/6
f 98/2/6 94/2/6 102/2/6
f 101/2/6 98/2/6 102/2/6
f 94/1/6 99/1/6 102/1/6
f 99/3/6 100/3/6 103/3/6
f 102/1/6 99/1/6 103/1/6
f 103/3/6 100/3/6 104/3/6
f 101/1/6 102/1/6 105/1/6
f 104/3/6 100/3/6 105/3/6
f 103/1/6 104/1/6 105/1/6
f 102/1/6 103/1/6 105/1/6
f 100/1/6 22/1/6 106/1/6
f 105/3/6 100/3/6 106/3/6
f 95/1/6 101/1/6 107/1/6
f 83/1/6 95/1/6 107/1/6
f 105/1/6 106/1/6 107/1/6
f 101/1/6 105/1/6 107/1/6
f 107/1/6 106/1/6 108/1/6
f 108/1/6 106/1/6 109/1/6
f 109/1/6 106/1/6 110/1/6
f 83/1/6 107/1/6 111/1/6
f 107/2/6 108/2/6 111/2/6
f 111/2/6 108/2/6 112/2/6
f 109/2/6 110/2/6 113/2/6
f 110/1/6 106/1/6 114/1/6
f 113/2/6 110/2/6 114/2/6
f 114/1/6 106/1/6 115/1/6
f 115/1/6 106/1/6 116/1/6
f 83/1/6 111/1/6 117/1/6
f 111/1/6 112/1/6 117/1/6
f 117/1/6 112/1/6 118/1/6
f 112/2/6 108/2/6 119/2/6
f 118/1/6 112/1/6 119/1/6
f 108/1/6 109/1/6 120/1/6
f 119/2/6 108/2/6 120/2/6
f 109/2/6 113/2/6 121/2/6
f 120/1/6 109/1/6 121/1/6
f 113/1/6 114/1/6 122/1/6
f 121/2/6 113/2/6 122/2/6
f 114/1/6 115/1/6 122/1/6
f 115/3/6 116/3/6 123/3/6
f 122/1/6 115/1/6 123/1/6
f 123/3/6 116/3/6 124/3/6
f 116/1/6 106/1/6 125/1/6
f 106/1/6 22/1/6 126/1/6
f 125/1/6 106/1/6 126/1/6
f 119/1/6 120/1/6 127/1/6
f 117/3/6 118/3/6 127/3/6
f 118/1/6 119/1/6 127/1/6
f 123/1/6 124/1/6 127/1/6
f 122/1/6 123/1/6 127/1/6
f 121/1/6 122/1/6 127/1/6
f 120/1/6 121/1/6 127/1/6
f 127/1/6 124/1/6 128/1/6
f 128/1/6 124/1/6 129/1/6
f 129/1/6 124/1/6 130/1/6
f 124/3/6 116/3/6 131/3/6
f 130/1/6 124/1/6 131/1/6
f 116/1/6 125/1/6 132/1/6
f 131/3/6 116/3/6 132/3/6
f 132/1/6 125/1/6 133/1/6
f 125/2/6 126/2/6 134/2/6
f 133/1/6 125/1/6 134/1/6
f 83/1/6 117/1/6 135/1/6
f 117/3/6 127/3/6 135/3/6
f 127/3/6 128/3/6 135/3/6
f 128/1/6 129/1/6 136/1/6
f 135/3/6 128/3/6 136/3/6
f 130/1/6 131/1/6 137/1/6
f 132/1/6 133/1/6 137/1/6
f 131/1/6 132/1/6 137/1/6
f 137/1/6 133/1/6 138/1/6
f 134/2/6 126/2/6 139/2/6
f 133/2/6 134/2/6 139/2/6
f 126/1/6 22/1/6 140/1/6
f 139/2/6 126/2/6 140/2/6
f 136/1/6 129/1/6 141/1/6
f 135/1/6 136/1/6 141/1/6
f 129/3/6 130/3/6 141/3/6
f 130/1/6 137/1/6 142/1/6
f 141/3/6 130/3/6 142/3/6
f 137/2/6 138/2/6 143/2/6
f 138/1/6 133/1/6 144/1/6
f 143/2/6 138/2/6 144/2/6
f 133/2/6 139/2/6 145/2/6
f 144/1/6 133/1/6 145/1/6
f 139/1/6 140/1/6 146/1/6
f 145/2/6 139/2/6 146/2/6
f 135/1/6 141/1/6 147/1/6
f 141/1/6 142/1/6 147/1/6
f 147/1/6 142/1/6 148/1/6
f 137/2/6 143/2/6 149/2/6
f 148/1/6 142/1/6 149/1/6
f 142/1/6 137/1/6 149/1/6
f 143/1/6 144/1/6 150/1/6
f 149/2/6 143/2/6 150/2/6
f 144/1/6 145/1/6 150/1/6
f 145/1/6 146/1/6 150/1/6
f 135/1/6 147/1/6 151/1/6
f 147/2/6 148/2/6 152/2/6
f 151/1/6 147/1/6 152/1/6
f 152/2/6 148/2/6 153/2/6
f 148/1/6 149/1/6 154/1/6
f 153/2/6 148/2/6 154/2/6
f 149/1/6 150/1/6 154/1/6
f 150/1/6 146/1/6 155/1/6
f 154/1/6 150/1/6 155/1/6
f 155/1/6 146/1/6 156/1/6
f 156/1/6 146/1/6 157/1/6
f 140/1/6 22/1/6 158/1/6
f 157/1/6 146/1/6 158/1/6
f 146/1/6 140/1/6 158/1/6
f 21/1/6 83/1/6 159/1/6
f 83/1/6 135/1/6 159/1/6
f 135/1/6 151/1/6 159/1/6
f 159/1/6 151/1/6 160/1/6
f 152/2/6 153/2/6 161/2/6
f 160/1/6 151/1/6 161/1/6
f 151/2/6 152/2/6 161/2/6
f 154/1/6 155/1/6 162/1/6
f 161/2/6 153/2/6 162/2/6
f 153/1/6 154/1/6 162/1/6
f 162/1/6 155/1/6 163/1/6
f 155/3/6 156/3/6 164/3/6
f 163/1/6 155/1/6 164/1/6
f 156/1/6 157/1/6 165/1/6
f 157/3/6 158/3/6 166/3/6
f 165/1/6 157/1/6 166/1/6
f 166/3/6 158/3/6 167/3/6
f 158/1/6 22/1/6 168/1/6
f 167/3/6 158/3/6 168/3/6
f 159/3/6 160/3/6 169/3/6
f 160/1/6 161/1/6 169/1/6
f 162/1/6 163/1/6 169/1/6
f 161/1/6 162/1/6 169/1/6
f 169/1/6 163/1/6 170/1/6
f 170/1/6 163/1/6 171/1/6
f 171/1/6 163/1/6 172/1/6
f 164/3/6 156/3/6 173/3/6
f 163/3/6 164/3/6 173/3/6
f 156/1/6 165/1/6 174/1/6
f 173/3/6 156/3/6 174/3/6
f 174/1/6 165/1/6 175/1/6
f 175/1/6 165/1/6 176/1/6
f 166/3/6 167/3/6 177/3/6
f 176/1/6 165/1/6 177/1/6
f 165/3/6 166/3/6 177/3/6
f 167/1/6 168/1/6 178/1/6
f 177/3/6 167/3/6 178/3/6
f 21/1/6 159/1/6 179/1/6
f 159/3/6 169/3/6 179/3/6
f 169/3/6 170/3/6 179/3/6
f 170/1/6 171/1/6 180/1/6
f 179/3/6 170/3/6 180/3/6
f 171/2/6 172/2/6 181/2/6
f 180/1/6 171/1/6 181/1/6
f 172/1/6 163/1/6 182/1/6
f 181/2/6 172/2/6 182/2/6
f 163/3/6 173/3/6 183/3/6
f 182/1/6 163/1/6 183/1/6
f 174/1/6 175/1/6 184/1/6
f 183/3/6 173/3/6 184/3/6
f 173/1/6 174/1/6 184/1/6
f 175/2/6 176/2/6 185/2/6
f 184/1/6 175/1/6 185/1/6
f 185/2/6 176/2/6 186/2/6
f 176/1/6 177/1/6 187/1/6
f 186/2/6 176/2/6 187/2/6
f 177/1/6 178/1/6 187/1/6
f 187/1/6 178/1/6 188/1/6
f 180/1/6 181/1/6 189/1/6
f 183/1/6 184/1/6 189/1/6
f 181/1/6 182/1/6 189/1/6
f 185/1/6 186/1/6 189/1/6
f 182/1/6 183/1/6 189/1/6
f 184/1/6 185/1/6 189/1/6
f 179/1/6 180/1/6 189/1/6
f 189/1/6 186/1/6 190/1/6
f 190/1/6 186/1/6 191/1/6
f 191/1/6 186/1/6 192/1/6
f 187/2/6 188/2/6 193/2/6
f 192/1/6 186/1/6 193/1/6
f 186/2/6 187/2/6 193/2/6
f 188/1/6 178/1/6 194/1/6
f 193/2/6 188/2/6 194/2/6
f 179/1/6 189/1/6 195/1/6
f 189/2/6 190/2/6 196/2/6
f 195/1/6 189/1/6 196/1/6
f 190/1/6 191/1/6 197/1/6
f 191/2/6 192/2/6 198/2/6
f 197/1/6 191/1/6 198/1/6
f 192/1/6 193/1/6 199/1/6
f 193/1/6 194/1/6 199/1/6
f 194/1/6 178/1/6 200/1/6
f 199/1/6 194/1/6 200/1/6
f 195/2/6 196/2/6 201/2/6
f 190/1/6 197/1/6 202/1/6
f 201/2/6 196/2/6 202/2/6
f 196/2/6 190/2/6 202/2/6
f 202/1/6 197/1/6 203/1/6
f 203/1/6 197/1/6 204/1/6
f 197/2/6 198/2/6 205/2/6
f 204/1/6 197/1/6 205/1/6
f 198/2/6 192/2/6 206/2/6
f 205/2/6 198/2/6 206/2/6
f 192/1/6 199/1/6 206/1/6
f 199/3/6 200/3/6 207/3/6
f 206/1/6 199/1/6 207/1/6
f 207/3/6 200/3/6 208/3/6
f 200/1/6 178/1/6 209/1/6
f 208/3/6 200/3/6 209/3/6
f 209/1/6 178/1/6 210/1/6
f 195/2/6 201/2/6 211/2/6
f 179/1/6 195/1/6 211/1/6
f 202/1/6 203/1/6 212/1/6
f 211/2/6 201/2/6 212/2/6
f 201/1/6 202/1/6 212/1/6
f 203/3/6 204/3/6 213/3/6
f 212/1/6 203/1/6 213/1/6
f 204/1/6 205/1/6 214/1/6
f 213/3/6 204/3/6 214/3/6
f 205/1/6 206/1/6 214/1/6
f 206/1/6 207/1/6 214/1/6
f 207/1/6 208/1/6 214/1/6
f 208/3/6 209/3/6 215/3/6
f 214/1/6 208/1/6 215/1/6
f 209/3/6 210/3/6 215/3/6
f 210/1/6 178/1/6 216/1/6
f 215/3/6 210/3/6 216/3/6
f 212/1/6 213/1/6 217/1/6
f 214/1/6 215/1/6 217/1/6
f 215/1/6 216/1/6 217/1/6
f 211/1/6 212/1/6 217/1/6
f 179/1/6 211/1/6 217/1/6
f 213/1/6 214/1/6 217/1/6
f 21/1/6 179/1/6 217/1/6
f 216/1/6 178/1/6 218/1/6
f 217/1/6 216/1/6 218/1/6
f 178/1/6 168/1/6 218/1/6
f 168/1/6 22/1/6 218/1/6
