# MagicaVoxel @ Ephtracy

# group
o wheat

# material
mtllib idle_farmer-5-wheat.mtl
usemtl palette

# normals
vn -1 0 0
vn 1 0 0
vn 0 0 1
vn 0 0 -1
vn 0 -1 0
vn 0 1 0

# texcoords
vt 0.564453 0.5
vt 0.568359 0.5
vt 0.572266 0.5
vt 0.595703 0.5
vt 0.599609 0.5
vt 0.603516 0.5
vt 0.607422 0.5

# verts
v -7.6 1 -2.8
v -7.6 1 -2.9
v -7.6 1.1 -2.8
v -7.6 1.1 -2.9
v -7.6 1.2 -2.8
v -7.6 1.2 -2.9
v -7.6 1.3 -2.8
v -7.6 1.3 -2.9
v -7.6 1.4 -2.8
v -7.6 1.4 -2.9
v -7.6 1.5 -2.8
v -7.6 1.5 -2.9
v -7.6 1.6 -2.8
v -7.6 1.6 -2.9
v -7.5 0 -2.8
v -7.5 0 -2.9
v -7.5 0.1 -2.8
v -7.5 0.1 -2.9
v -7.5 0.3 -2.8
v -7.5 0.3 -2.9
v -7.5 0.5 -2.8
v -7.5 0.5 -2.9
v -7.5 0.6 -2.8
v -7.5 0.6 -2.9
v -7.5 0.9 -2.8
v -7.5 0.9 -2.9
v -7.5 1 -2.8
v -7.5 1 -2.9
v -7.5 1.6 -2.8
v -7.5 1.6 -2.9
v -7.5 1.7 -2.8
v -7.5 1.7 -2.9
v -7.4 0 -2.8
v -7.4 0 -2.9
v -7.4 0.1 -2.8
v -7.4 0.1 -2.9
v -7.4 0.3 -2.8
v -7.4 0.3 -2.9
v -7.4 0.5 -2.8
v -7.4 0.5 -2.9
v -7.4 0.6 -2.8
v -7.4 0.6 -2.9
v -7.4 0.9 -2.8
v -7.4 0.9 -2.9
v -7.4 1 -2.8
v -7.4 1 -2.9
v -7.4 1.6 -2.8
v -7.4 1.6 -2.9
v -7.4 1.7 -2.8
v -7.4 1.7 -2.9
v -7.3 1 -2.8
v -7.3 1 -2.9
v -7.3 1.1 -2.8
v -7.3 1.1 -2.9
v -7.3 1.2 -2.8
v -7.3 1.2 -2.9
v -7.3 1.3 -2.8
v -7.3 1.3 -2.9
v -7.3 1.4 -2.8
v -7.3 1.4 -2.9
v -7.3 1.5 -2.8
v -7.3 1.5 -2.9
v -7.3 1.6 -2.8
v -7.3 1.6 -2.9
v -7.6 1 -2.8
v -7.6 1.1 -2.8
v -7.6 1.2 -2.8
v -7.6 1.3 -2.8
v -7.6 1.4 -2.8
v -7.6 1.5 -2.8
v -7.6 1.6 -2.8
v -7.5 0 -2.8
v -7.5 0.1 -2.8
v -7.5 0.3 -2.8
v -7.5 0.5 -2.8
v -7.5 0.6 -2.8
v -7.5 0.9 -2.8
v -7.5 1 -2.8
v -7.5 1.1 -2.8
v -7.5 1.2 -2.8
v -7.5 1.3 -2.8
v -7.5 1.4 -2.8
v -7.5 1.5 -2.8
v -7.5 1.6 -2.8
v -7.5 1.7 -2.8
v -7.4 0 -2.8
v -7.4 0.1 -2.8
v -7.4 0.3 -2.8
v -7.4 0.5 -2.8
v -7.4 0.6 -2.8
v -7.4 0.9 -2.8
v -7.4 1 -2.8
v -7.4 1.1 -2.8
v -7.4 1.2 -2.8
v -7.4 1.3 -2.8
v -7.4 1.4 -2.8
v -7.4 1.5 -2.8
v -7.4 1.6 -2.8
v -7.4 1.7 -2.8
v -7.3 1 -2.8
v -7.3 1.1 -2.8
v -7.3 1.2 -2.8
v -7.3 1.3 -2.8
v -7.3 1.4 -2.8
v -7.3 1.5 -2.8
v -7.3 1.6 -2.8
v -7.6 1 -2.9
v -7.6 1.1 -2.9
v -7.6 1.2 -2.9
v -7.6 1.3 -2.9
v -7.6 1.4 -2.9
v -7.6 1.5 -2.9
v -7.6 1.6 -2.9
v -7.5 0 -2.9
v -7.5 0.1 -2.9
v -7.5 0.3 -2.9
v -7.5 0.5 -2.9
v -7.5 0.6 -2.9
v -7.5 0.9 -2.9
v -7.5 1 -2.9
v -7.5 1.1 -2.9
v -7.5 1.2 -2.9
v -7.5 1.3 -2.9
v -7.5 1.4 -2.9
v -7.5 1.5 -2.9
v -7.5 1.6 -2.9
v -7.5 1.7 -2.9
v -7.4 0 -2.9
v -7.4 0.1 -2.9
v -7.4 0.3 -2.9
v -7.4 0.5 -2.9
v -7.4 0.6 -2.9
v -7.4 0.9 -2.9
v -7.4 1 -2.9
v -7.4 1.1 -2.9
v -7.4 1.2 -2.9
v -7.4 1.3 -2.9
v -7.4 1.4 -2.9
v -7.4 1.5 -2.9
v -7.4 1.6 -2.9
v -7.4 1.7 -2.9
v -7.3 1 -2.9
v -7.3 1.1 -2.9
v -7.3 1.2 -2.9
v -7.3 1.3 -2.9
v -7.3 1.4 -2.9
v -7.3 1.5 -2.9
v -7.3 1.6 -2.9
v -7.5 0 -2.8
v -7.4 0 -2.8
v -7.5 0 -2.9
v -7.4 0 -2.9
v -7.6 1 -2.8
v -7.5 1 -2.8
v -7.4 1 -2.8
v -7.3 1 -2.8
v -7.6 1 -2.9
v -7.5 1 -2.9
v -7.4 1 -2.9
v -7.3 1 -2.9
v -7.6 1.6 -2.8
v -7.5 1.6 -2.8
v -7.4 1.6 -2.8
v -7.3 1.6 -2.8
v -7.6 1.6 -2.9
v -7.5 1.6 -2.9
v -7.4 1.6 -2.9
v -7.3 1.6 -2.9
v -7.5 1.7 -2.8
v -7.4 1.7 -2.8
v -7.5 1.7 -2.9
v -7.4 1.7 -2.9

# faces
f 3/4/1 2/4/1 1/4/1
f 4/4/1 2/4/1 3/4/1
f 5/6/1 4/6/1 3/6/1
f 6/6/1 4/6/1 5/6/1
f 7/4/1 6/4/1 5/4/1
f 8/4/1 6/4/1 7/4/1
f 9/6/1 8/6/1 7/6/1
f 10/6/1 8/6/1 9/6/1
f 11/4/1 10/4/1 9/4/1
f 12/4/1 10/4/1 11/4/1
f 13/6/1 12/6/1 11/6/1
f 14/6/1 12/6/1 13/6/1
f 17/1/1 16/1/1 15/1/1
f 18/1/1 16/1/1 17/1/1
f 19/2/1 18/2/1 17/2/1
f 20/2/1 18/2/1 19/2/1
f 21/3/1 20/3/1 19/3/1
f 22/3/1 20/3/1 21/3/1
f 23/5/1 22/5/1 21/5/1
f 24/5/1 22/5/1 23/5/1
f 25/2/1 24/2/1 23/2/1
f 26/2/1 24/2/1 25/2/1
f 27/1/1 26/1/1 25/1/1
f 28/1/1 26/1/1 27/1/1
f 31/6/1 30/6/1 29/6/1
f 32/6/1 30/6/1 31/6/1
f 33/1/2 34/1/2 35/1/2
f 35/1/2 34/1/2 36/1/2
f 35/2/2 36/2/2 37/2/2
f 37/2/2 36/2/2 38/2/2
f 37/3/2 38/3/2 39/3/2
f 39/3/2 38/3/2 40/3/2
f 39/5/2 40/5/2 41/5/2
f 41/5/2 40/5/2 42/5/2
f 41/2/2 42/2/2 43/2/2
f 43/2/2 42/2/2 44/2/2
f 43/1/2 44/1/2 45/1/2
f 45/1/2 44/1/2 46/1/2
f 47/6/2 48/6/2 49/6/2
f 49/6/2 48/6/2 50/6/2
f 51/4/2 52/4/2 53/4/2
f 53/4/2 52/4/2 54/4/2
f 53/6/2 54/6/2 55/6/2
f 55/6/2 54/6/2 56/6/2
f 55/4/2 56/4/2 57/4/2
f 57/4/2 56/4/2 58/4/2
f 57/6/2 58/6/2 59/6/2
f 59/6/2 58/6/2 60/6/2
f 59/4/2 60/4/2 61/4/2
f 61/4/2 60/4/2 62/4/2
f 61/6/2 62/6/2 63/6/2
f 63/6/2 62/6/2 64/6/2
f 78/4/3 66/4/3 65/4/3
f 79/6/3 67/6/3 66/6/3
f 79/4/3 66/4/3 78/4/3
f 80/4/3 68/4/3 67/4/3
f 80/6/3 67/6/3 79/6/3
f 81/6/3 69/6/3 68/6/3
f 81/4/3 68/4/3 80/4/3
f 82/4/3 70/4/3 69/4/3
f 82/6/3 69/6/3 81/6/3
f 83/6/3 71/6/3 70/6/3
f 83/4/3 70/4/3 82/4/3
f 84/6/3 71/6/3 83/6/3
f 86/1/3 73/1/3 72/1/3
f 87/2/3 74/2/3 73/2/3
f 87/1/3 73/1/3 86/1/3
f 88/3/3 75/3/3 74/3/3
f 88/2/3 74/2/3 87/2/3
f 89/5/3 76/5/3 75/5/3
f 89/3/3 75/3/3 88/3/3
f 90/2/3 77/2/3 76/2/3
f 90/5/3 76/5/3 89/5/3
f 91/1/3 78/1/3 77/1/3
f 91/2/3 77/2/3 90/2/3
f 92/6/3 79/6/3 78/6/3
f 92/1/3 78/1/3 91/1/3
f 93/7/3 80/7/3 79/7/3
f 93/6/3 79/6/3 92/6/3
f 94/6/3 81/6/3 80/6/3
f 94/7/3 80/7/3 93/7/3
f 95/7/3 82/7/3 81/7/3
f 95/6/3 81/6/3 94/6/3
f 96/6/3 83/6/3 82/6/3
f 96/7/3 82/7/3 95/7/3
f 97/7/3 84/7/3 83/7/3
f 97/6/3 83/6/3 96/6/3
f 98/6/3 85/6/3 84/6/3
f 98/7/3 84/7/3 97/7/3
f 99/6/3 85/6/3 98/6/3
f 100/4/3 93/4/3 92/4/3
f 101/6/3 94/6/3 93/6/3
f 101/4/3 93/4/3 100/4/3
f 102/4/3 95/4/3 94/4/3
f 102/6/3 94/6/3 101/6/3
f 103/6/3 96/6/3 95/6/3
f 103/4/3 95/4/3 102/4/3
f 104/4/3 97/4/3 96/4/3
f 104/6/3 96/6/3 103/6/3
f 105/6/3 98/6/3 97/6/3
f 105/4/3 97/4/3 104/4/3
f 106/6/3 98/6/3 105/6/3
f 107/4/4 108/4/4 120/4/4
f 108/6/4 109/6/4 121/6/4
f 120/4/4 108/4/4 121/4/4
f 109/4/4 110/4/4 122/4/4
f 121/6/4 109/6/4 122/6/4
f 110/6/4 111/6/4 123/6/4
f 122/4/4 110/4/4 123/4/4
f 111/4/4 112/4/4 124/4/4
f 123/6/4 111/6/4 124/6/4
f 112/6/4 113/6/4 125/6/4
f 124/4/4 112/4/4 125/4/4
f 125/6/4 113/6/4 126/6/4
f 114/1/4 115/1/4 128/1/4
f 115/2/4 116/2/4 129/2/4
f 128/1/4 115/1/4 129/1/4
f 116/3/4 117/3/4 130/3/4
f 129/2/4 116/2/4 130/2/4
f 117/5/4 118/5/4 131/5/4
f 130/3/4 117/3/4 131/3/4
f 118/2/4 119/2/4 132/2/4
f 131/5/4 118/5/4 132/5/4
f 119/1/4 120/1/4 133/1/4
f 132/2/4 119/2/4 133/2/4
f 120/6/4 121/6/4 134/6/4
f 133/1/4 120/1/4 134/1/4
f 121/7/4 122/7/4 135/7/4
f 134/6/4 121/6/4 135/6/4
f 122/6/4 123/6/4 136/6/4
f 135/7/4 122/7/4 136/7/4
f 123/7/4 124/7/4 137/7/4
f 136/6/4 123/6/4 137/6/4
f 124/6/4 125/6/4 138/6/4
f 137/7/4 124/7/4 138/7/4
f 125/7/4 126/7/4 139/7/4
f 138/6/4 125/6/4 139/6/4
f 126/6/4 127/6/4 140/6/4
f 139/7/4 126/7/4 140/7/4
f 140/6/4 127/6/4 141/6/4
f 134/4/4 135/4/4 142/4/4
f 135/6/4 136/6/4 143/6/4
f 142/4/4 135/4/4 143/4/4
f 136/4/4 137/4/4 144/4/4
f 143/6/4 136/6/4 144/6/4
f 137/6/4 138/6/4 145/6/4
f 144/4/4 137/4/4 145/4/4
f 138/4/4 139/4/4 146/4/4
f 145/6/4 138/6/4 146/6/4
f 139/6/4 140/6/4 147/6/4
f 146/4/4 139/4/4 147/4/4
f 147/6/4 140/6/4 148/6/4
f 151/1/5 150/1/5 149/1/5
f 152/1/5 150/1/5 151/1/5
f 157/4/5 154/4/5 153/4/5
f 158/4/5 154/4/5 157/4/5
f 159/4/5 156/4/5 155/4/5
f 160/4/5 156/4/5 159/4/5
f 161/6/6 162/6/6 165/6/6
f 165/6/6 162/6/6 166/6/6
f 163/6/6 164/6/6 167/6/6
f 167/6/6 164/6/6 168/6/6
f 169/6/6 170/6/6 171/6/6
f 171/6/6 170/6/6 172/6/6
