# MagicaVoxel @ Ephtracy

# group
o scythe

# material
mtllib -3-scythe.mtl
usemtl palette

# normals
vn -1 0 0
vn 1 0 0
vn 0 0 1
vn 0 0 -1
vn 0 -1 0
vn 0 1 0

# texcoords
vt 0.537109 0.5
vt 0.541016 0.5
vt 0.857422 0.5
vt 0.861328 0.5

# verts
v -0.4 0 1.2
v -0.4 0 0.6
v -0.4 0.1 1.2
v -0.4 0.1 0.6
v -0.3 0 1.3
v -0.3 0 1.2
v -0.3 0 0.6
v -0.3 0 0.5
v -0.3 0.1 1.3
v -0.3 0.1 1.2
v -0.3 0.1 0.6
v -0.3 0.1 0.5
v -0.2 0 1.4
v -0.2 0 1.3
v -0.2 0 0.5
v -0.2 0 0.4
v -0.2 0.1 1.4
v -0.2 0.1 1.3
v -0.2 0.1 0.5
v -0.2 0.1 0.4
v -0.1 0 1.5
v -0.1 0 1.4
v -0.1 0 0.4
v -0.1 0 0.3
v -0.1 0.1 1.5
v -0.1 0.1 1.4
v -0.1 0.1 0.4
v -0.1 0.1 0.3
v 7.45058e-009 0 1.6
v 7.45058e-009 0 1.5
v 7.45058e-009 0 0.3
v 7.45058e-009 0 0.2
v 7.45058e-009 0 -9.68575e-008
v 7.45058e-009 0 -0.3
v 7.45058e-009 0 -0.4
v 7.45058e-009 0.1 1.6
v 7.45058e-009 0.1 1.5
v 7.45058e-009 0.1 0.3
v 7.45058e-009 0.1 0.2
v 7.45058e-009 0.1 -9.68575e-008
v 7.45058e-009 0.1 -0.3
v 7.45058e-009 0.1 -0.4
v -0.2 0 1.2
v -0.2 0 0.7
v -0.2 0.1 1.2
v -0.2 0.1 0.7
v -0.1 0 1.3
v -0.1 0 1.2
v -0.1 0 0.7
v -0.1 0 0.6
v -0.1 0.1 1.3
v -0.1 0.1 1.2
v -0.1 0.1 0.7
v -0.1 0.1 0.6
v 7.45058e-009 0 1.4
v 7.45058e-009 0 1.3
v 7.45058e-009 0 0.6
v 7.45058e-009 0 0.5
v 7.45058e-009 0.1 1.4
v 7.45058e-009 0.1 1.3
v 7.45058e-009 0.1 0.6
v 7.45058e-009 0.1 0.5
v 0.1 0 1.5
v 0.1 0 1.4
v 0.1 0 0.5
v 0.1 0 0.4
v 0.1 0 0.2
v 0.1 0 -9.68575e-008
v 0.1 0 -0.3
v 0.1 0 -0.4
v 0.1 0.1 1.5
v 0.1 0.1 1.4
v 0.1 0.1 0.5
v 0.1 0.1 0.4
v 0.1 0.1 0.2
v 0.1 0.1 -9.68575e-008
v 0.1 0.1 -0.3
v 0.1 0.1 -0.4
v 0.3 0 1.6
v 0.3 0 1.5
v 0.3 0.1 1.6
v 0.3 0.1 1.5
v 7.45058e-009 0 1.6
v 7.45058e-009 0.1 1.6
v 0.1 0 1.6
v 0.1 0.1 1.6
v 0.3 0 1.6
v 0.3 0.1 1.6
v -0.1 0 1.5
v -0.1 0.1 1.5
v 7.45058e-009 0 1.5
v 7.45058e-009 0.1 1.5
v -0.2 0 1.4
v -0.2 0.1 1.4
v -0.1 0 1.4
v -0.1 0.1 1.4
v -0.3 0 1.3
v -0.3 0.1 1.3
v -0.2 0 1.3
v -0.2 0.1 1.3
v -0.4 0 1.2
v -0.4 0.1 1.2
v -0.3 0 1.2
v -0.3 0.1 1.2
v -0.2 0 0.7
v -0.2 0.1 0.7
v -0.1 0 0.7
v -0.1 0.1 0.7
v -0.1 0 0.6
v -0.1 0.1 0.6
v 7.45058e-009 0 0.6
v 7.45058e-009 0.1 0.6
v 7.45058e-009 0 0.5
v 7.45058e-009 0.1 0.5
v 0.1 0 0.5
v 0.1 0.1 0.5
v 0.1 0 1.5
v 0.1 0.1 1.5
v 0.3 0 1.5
v 0.3 0.1 1.5
v 7.45058e-009 0 1.4
v 7.45058e-009 0.1 1.4
v 0.1 0 1.4
v 0.1 0.1 1.4
v -0.1 0 1.3
v -0.1 0.1 1.3
v 7.45058e-009 0 1.3
v 7.45058e-009 0.1 1.3
v -0.2 0 1.2
v -0.2 0.1 1.2
v -0.1 0 1.2
v -0.1 0.1 1.2
v -0.4 0 0.6
v -0.4 0.1 0.6
v -0.3 0 0.6
v -0.3 0.1 0.6
v -0.3 0 0.5
v -0.3 0.1 0.5
v -0.2 0 0.5
v -0.2 0.1 0.5
v -0.2 0 0.4
v -0.2 0.1 0.4
v -0.1 0 0.4
v -0.1 0.1 0.4
v -0.1 0 0.3
v -0.1 0.1 0.3
v 7.45058e-009 0 0.3
v 7.45058e-009 0.1 0.3
v 7.45058e-009 0 -0.4
v 7.45058e-009 0.1 -0.4
v 0.1 0 -0.4
v 0.1 0.1 -0.4
v 7.45058e-009 0 1.6
v 0.1 0 1.6
v 0.3 0 1.6
v -0.1 0 1.5
v 7.45058e-009 0 1.5
v 0.1 0 1.5
v 0.3 0 1.5
v -0.2 0 1.4
v -0.1 0 1.4
v 7.45058e-009 0 1.4
v 0.1 0 1.4
v -0.3 0 1.3
v -0.2 0 1.3
v -0.1 0 1.3
v 7.45058e-009 0 1.3
v -0.4 0 1.2
v -0.3 0 1.2
v -0.2 0 1.2
v -0.1 0 1.2
v -0.3 0 0.7
v -0.2 0 0.7
v -0.1 0 0.7
v -0.4 0 0.6
v -0.3 0 0.6
v -0.2 0 0.6
v -0.1 0 0.6
v 7.45058e-009 0 0.6
v -0.3 0 0.5
v -0.2 0 0.5
v -0.1 0 0.5
v 7.45058e-009 0 0.5
v 0.1 0 0.5
v -0.2 0 0.4
v -0.1 0 0.4
v 7.45058e-009 0 0.4
v 0.1 0 0.4
v -0.1 0 0.3
v 7.45058e-009 0 0.3
v 7.45058e-009 0 0.2
v 0.1 0 0.2
v 7.45058e-009 0 -9.68575e-008
v 0.1 0 -9.68575e-008
v 7.45058e-009 0 -0.3
v 0.1 0 -0.3
v 7.45058e-009 0 -0.4
v 0.1 0 -0.4
v 7.45058e-009 0.1 1.6
v 0.1 0.1 1.6
v 0.3 0.1 1.6
v -0.1 0.1 1.5
v 7.45058e-009 0.1 1.5
v 0.1 0.1 1.5
v 0.3 0.1 1.5
v -0.2 0.1 1.4
v -0.1 0.1 1.4
v 7.45058e-009 0.1 1.4
v 0.1 0.1 1.4
v -0.3 0.1 1.3
v -0.2 0.1 1.3
v -0.1 0.1 1.3
v 7.45058e-009 0.1 1.3
v -0.4 0.1 1.2
v -0.3 0.1 1.2
v -0.2 0.1 1.2
v -0.1 0.1 1.2
v -0.3 0.1 0.7
v -0.2 0.1 0.7
v -0.1 0.1 0.7
v -0.4 0.1 0.6
v -0.3 0.1 0.6
v -0.2 0.1 0.6
v -0.1 0.1 0.6
v 7.45058e-009 0.1 0.6
v -0.3 0.1 0.5
v -0.2 0.1 0.5
v -0.1 0.1 0.5
v 7.45058e-009 0.1 0.5
v 0.1 0.1 0.5
v -0.2 0.1 0.4
v -0.1 0.1 0.4
v 7.45058e-009 0.1 0.4
v 0.1 0.1 0.4
v -0.1 0.1 0.3
v 7.45058e-009 0.1 0.3
v 7.45058e-009 0.1 0.2
v 0.1 0.1 0.2
v 7.45058e-009 0.1 -9.68575e-008
v 0.1 0.1 -9.68575e-008
v 7.45058e-009 0.1 -0.3
v 0.1 0.1 -0.3
v 7.45058e-009 0.1 -0.4
v 0.1 0.1 -0.4

# faces
f 3/3/1 2/3/1 1/3/1
f 4/3/1 2/3/1 3/3/1
f 9/3/1 6/3/1 5/3/1
f 10/3/1 6/3/1 9/3/1
f 11/3/1 8/3/1 7/3/1
f 12/3/1 8/3/1 11/3/1
f 17/3/1 14/3/1 13/3/1
f 18/3/1 14/3/1 17/3/1
f 19/3/1 16/3/1 15/3/1
f 20/3/1 16/3/1 19/3/1
f 25/3/1 22/3/1 21/3/1
f 26/3/1 22/3/1 25/3/1
f 27/3/1 24/3/1 23/3/1
f 28/3/1 24/3/1 27/3/1
f 36/3/1 30/3/1 29/3/1
f 37/3/1 30/3/1 36/3/1
f 38/3/1 32/3/1 31/3/1
f 39/2/1 33/2/1 32/2/1
f 39/3/1 32/3/1 38/3/1
f 40/1/1 34/1/1 33/1/1
f 40/2/1 33/2/1 39/2/1
f 41/2/1 35/2/1 34/2/1
f 41/1/1 34/1/1 40/1/1
f 42/2/1 35/2/1 41/2/1
f 43/4/2 44/4/2 45/4/2
f 45/4/2 44/4/2 46/4/2
f 47/4/2 48/4/2 51/4/2
f 51/4/2 48/4/2 52/4/2
f 49/4/2 50/4/2 53/4/2
f 53/4/2 50/4/2 54/4/2
f 55/4/2 56/4/2 59/4/2
f 59/4/2 56/4/2 60/4/2
f 57/4/2 58/4/2 61/4/2
f 61/4/2 58/4/2 62/4/2
f 63/4/2 64/4/2 71/4/2
f 71/4/2 64/4/2 72/4/2
f 65/4/2 66/4/2 73/4/2
f 66/3/2 67/3/2 74/3/2
f 73/4/2 66/4/2 74/4/2
f 67/2/2 68/2/2 75/2/2
f 74/3/2 67/3/2 75/3/2
f 68/1/2 69/1/2 76/1/2
f 75/2/2 68/2/2 76/2/2
f 69/2/2 70/2/2 77/2/2
f 76/1/2 69/1/2 77/1/2
f 77/2/2 70/2/2 78/2/2
f 79/4/2 80/4/2 81/4/2
f 81/4/2 80/4/2 82/4/2
f 85/3/3 84/3/3 83/3/3
f 86/3/3 84/3/3 85/3/3
f 87/4/3 86/4/3 85/4/3
f 88/4/3 86/4/3 87/4/3
f 91/3/3 90/3/3 89/3/3
f 92/3/3 90/3/3 91/3/3
f 95/3/3 94/3/3 93/3/3
f 96/3/3 94/3/3 95/3/3
f 99/3/3 98/3/3 97/3/3
f 100/3/3 98/3/3 99/3/3
f 103/3/3 102/3/3 101/3/3
f 104/3/3 102/3/3 103/3/3
f 107/4/3 106/4/3 105/4/3
f 108/4/3 106/4/3 107/4/3
f 111/4/3 110/4/3 109/4/3
f 112/4/3 110/4/3 111/4/3
f 115/4/3 114/4/3 113/4/3
f 116/4/3 114/4/3 115/4/3
f 117/4/4 118/4/4 119/4/4
f 119/4/4 118/4/4 120/4/4
f 121/4/4 122/4/4 123/4/4
f 123/4/4 122/4/4 124/4/4
f 125/4/4 126/4/4 127/4/4
f 127/4/4 126/4/4 128/4/4
f 129/4/4 130/4/4 131/4/4
f 131/4/4 130/4/4 132/4/4
f 133/3/4 134/3/4 135/3/4
f 135/3/4 134/3/4 136/3/4
f 137/3/4 138/3/4 139/3/4
f 139/3/4 138/3/4 140/3/4
f 141/3/4 142/3/4 143/3/4
f 143/3/4 142/3/4 144/3/4
f 145/3/4 146/3/4 147/3/4
f 147/3/4 146/3/4 148/3/4
f 149/2/4 150/2/4 151/2/4
f 151/2/4 150/2/4 152/2/4
f 157/3/5 154/3/5 153/3/5
f 158/4/5 155/4/5 154/4/5
f 158/3/5 154/3/5 157/3/5
f 159/4/5 155/4/5 158/4/5
f 161/3/5 157/3/5 156/3/5
f 162/4/5 158/4/5 157/4/5
f 162/3/5 157/3/5 161/3/5
f 163/4/5 158/4/5 162/4/5
f 165/3/5 161/3/5 160/3/5
f 166/4/5 162/4/5 161/4/5
f 166/3/5 161/3/5 165/3/5
f 167/4/5 162/4/5 166/4/5
f 169/3/5 165/3/5 164/3/5
f 170/4/5 166/4/5 165/4/5
f 170/3/5 165/3/5 169/3/5
f 171/4/5 166/4/5 170/4/5
f 172/3/5 169/3/5 168/3/5
f 172/4/5 170/4/5 169/4/5
f 173/4/5 170/4/5 172/4/5
f 175/3/5 172/3/5 168/3/5
f 175/3/5 173/3/5 172/3/5
f 176/3/5 173/3/5 175/3/5
f 177/4/5 174/4/5 173/4/5
f 177/3/5 173/3/5 176/3/5
f 178/4/5 174/4/5 177/4/5
f 180/3/5 178/3/5 177/3/5
f 180/3/5 177/3/5 176/3/5
f 181/3/5 178/3/5 180/3/5
f 182/4/5 179/4/5 178/4/5
f 182/3/5 178/3/5 181/3/5
f 183/4/5 179/4/5 182/4/5
f 185/3/5 183/3/5 182/3/5
f 185/3/5 182/3/5 181/3/5
f 186/3/5 183/3/5 185/3/5
f 187/4/5 184/4/5 183/4/5
f 187/3/5 183/3/5 186/3/5
f 188/4/5 184/4/5 187/4/5
f 189/3/5 187/3/5 186/3/5
f 189/3/5 188/3/5 187/3/5
f 190/3/5 188/3/5 189/3/5
f 191/3/5 188/3/5 190/3/5
f 192/3/5 188/3/5 191/3/5
f 193/2/5 192/2/5 191/2/5
f 194/2/5 192/2/5 193/2/5
f 195/1/5 194/1/5 193/1/5
f 196/1/5 194/1/5 195/1/5
f 197/2/5 196/2/5 195/2/5
f 198/2/5 196/2/5 197/2/5
f 199/3/6 200/3/6 203/3/6
f 200/4/6 201/4/6 204/4/6
f 203/3/6 200/3/6 204/3/6
f 204/4/6 201/4/6 205/4/6
f 202/3/6 203/3/6 207/3/6
f 203/4/6 204/4/6 208/4/6
f 207/3/6 203/3/6 208/3/6
f 208/4/6 204/4/6 209/4/6
f 206/3/6 207/3/6 211/3/6
f 207/4/6 208/4/6 212/4/6
f 211/3/6 207/3/6 212/3/6
f 212/4/6 208/4/6 213/4/6
f 210/3/6 211/3/6 215/3/6
f 211/4/6 212/4/6 216/4/6
f 215/3/6 211/3/6 216/3/6
f 216/4/6 212/4/6 217/4/6
f 214/3/6 215/3/6 218/3/6
f 215/4/6 216/4/6 218/4/6
f 218/4/6 216/4/6 219/4/6
f 214/3/6 218/3/6 221/3/6
f 218/3/6 219/3/6 221/3/6
f 221/3/6 219/3/6 222/3/6
f 219/4/6 220/4/6 223/4/6
f 222/3/6 219/3/6 223/3/6
f 223/4/6 220/4/6 224/4/6
f 223/3/6 224/3/6 226/3/6
f 222/3/6 223/3/6 226/3/6
f 226/3/6 224/3/6 227/3/6
f 224/4/6 225/4/6 228/4/6
f 227/3/6 224/3/6 228/3/6
f 228/4/6 225/4/6 229/4/6
f 228/3/6 229/3/6 231/3/6
f 227/3/6 228/3/6 231/3/6
f 231/3/6 229/3/6 232/3/6
f 229/4/6 230/4/6 233/4/6
f 232/3/6 229/3/6 233/3/6
f 233/4/6 230/4/6 234/4/6
f 232/3/6 233/3/6 235/3/6
f 233/3/6 234/3/6 235/3/6
f 235/3/6 234/3/6 236/3/6
f 236/3/6 234/3/6 237/3/6
f 237/3/6 234/3/6 238/3/6
f 237/2/6 238/2/6 239/2/6
f 239/2/6 238/2/6 240/2/6
f 239/1/6 240/1/6 241/1/6
f 241/1/6 240/1/6 242/1/6
f 241/2/6 242/2/6 243/2/6
f 243/2/6 242/2/6 244/2/6
