# MagicaVoxel @ Ephtracy

# group
o leg

# material
mtllib -6-leg.mtl
usemtl palette

# normals
vn -1 0 0
vn 1 0 0
vn 0 0 1
vn 0 0 -1
vn 0 -1 0
vn 0 1 0

# texcoords
vt 0.876953 0.5
vt 0.912109 0.5
vt 0.916016 0.5

# verts
v -0.1 0 0.1
v -0.1 0 4.47035e-008
v -0.1 0.1 0.1
v -0.1 0.1 4.47035e-008
v -0.1 0.3 0.1
v -0.1 0.3 4.47035e-008
v -0.1 0.4 0.1
v -0.1 0.4 4.47035e-008
v -4.47035e-008 0 0.1
v -4.47035e-008 0 4.47035e-008
v -4.47035e-008 0.1 0.1
v -4.47035e-008 0.1 4.47035e-008
v -4.47035e-008 0.3 0.1
v -4.47035e-008 0.3 4.47035e-008
v -4.47035e-008 0.4 0.1
v -4.47035e-008 0.4 4.47035e-008
v -0.1 0 0.1
v -0.1 0.1 0.1
v -0.1 0.3 0.1
v -0.1 0.4 0.1
v -4.47035e-008 0 0.1
v -4.47035e-008 0.1 0.1
v -4.47035e-008 0.3 0.1
v -4.47035e-008 0.4 0.1
v -0.1 0 4.47035e-008
v -0.1 0.1 4.47035e-008
v -0.1 0.3 4.47035e-008
v -0.1 0.4 4.47035e-008
v -4.47035e-008 0 4.47035e-008
v -4.47035e-008 0.1 4.47035e-008
v -4.47035e-008 0.3 4.47035e-008
v -4.47035e-008 0.4 4.47035e-008
v -0.1 0 0.1
v -4.47035e-008 0 0.1
v -0.1 0 4.47035e-008
v -4.47035e-008 0 4.47035e-008
v -0.1 0.4 0.1
v -4.47035e-008 0.4 0.1
v -0.1 0.4 4.47035e-008
v -4.47035e-008 0.4 4.47035e-008

# faces
f 3/2/1 2/2/1 1/2/1
f 4/2/1 2/2/1 3/2/1
f 5/3/1 4/3/1 3/3/1
f 6/3/1 4/3/1 5/3/1
f 7/1/1 6/1/1 5/1/1
f 8/1/1 6/1/1 7/1/1
f 9/2/2 10/2/2 11/2/2
f 11/2/2 10/2/2 12/2/2
f 11/3/2 12/3/2 13/3/2
f 13/3/2 12/3/2 14/3/2
f 13/1/2 14/1/2 15/1/2
f 15/1/2 14/1/2 16/1/2
f 21/2/3 18/2/3 17/2/3
f 22/3/3 19/3/3 18/3/3
f 22/2/3 18/2/3 21/2/3
f 23/1/3 20/1/3 19/1/3
f 23/3/3 19/3/3 22/3/3
f 24/1/3 20/1/3 23/1/3
f 25/2/4 26/2/4 29/2/4
f 26/3/4 27/3/4 30/3/4
f 29/2/4 26/2/4 30/2/4
f 27/1/4 28/1/4 31/1/4
f 30/3/4 27/3/4 31/3/4
f 31/1/4 28/1/4 32/1/4
f 35/2/5 34/2/5 33/2/5
f 36/2/5 34/2/5 35/2/5
f 37/1/6 38/1/6 39/1/6
f 39/1/6 38/1/6 40/1/6
