# MagicaVoxel @ Ephtracy

# group
o hand

# material
mtllib -7-hand.mtl
usemtl palette

# normals
vn -1 0 0
vn 1 0 0
vn 0 0 1
vn 0 0 -1
vn 0 -1 0
vn 0 1 0

# texcoords
vt 0.876953 0.5
vt 0.880859 0.5
vt 0.884766 0.5

# verts
v -0.2 0 0.1
v -0.2 0 4.47035e-008
v -0.2 0.2 0.1
v -0.2 0.2 4.47035e-008
v 0.3 0 0.1
v 0.3 0 4.47035e-008
v 0.3 0.1 0.1
v 0.3 0.1 4.47035e-008
v 0.3 0.2 0.1
v 0.3 0.2 4.47035e-008
v -0.2 0 0.1
v -0.2 0.2 0.1
v 5.21541e-008 0.1 0.1
v 5.21541e-008 0.2 0.1
v 0.1 0.1 0.1
v 0.1 0.2 0.1
v 0.3 0 0.1
v 0.3 0.1 0.1
v 0.3 0.2 0.1
v -0.2 0 4.47035e-008
v -0.2 0.2 4.47035e-008
v 5.21541e-008 0.1 4.47035e-008
v 5.21541e-008 0.2 4.47035e-008
v 0.1 0.1 4.47035e-008
v 0.1 0.2 4.47035e-008
v 0.3 0 4.47035e-008
v 0.3 0.1 4.47035e-008
v 0.3 0.2 4.47035e-008
v -0.2 0 0.1
v 0.3 0 0.1
v -0.2 0 4.47035e-008
v 0.3 0 4.47035e-008
v -0.2 0.2 0.1
v 5.21541e-008 0.2 0.1
v 0.1 0.2 0.1
v 0.3 0.2 0.1
v -0.2 0.2 4.47035e-008
v 5.21541e-008 0.2 4.47035e-008
v 0.1 0.2 4.47035e-008
v 0.3 0.2 4.47035e-008

# faces
f 3/2/1 2/2/1 1/2/1
f 4/2/1 2/2/1 3/2/1
f 5/2/2 6/2/2 7/2/2
f 7/2/2 6/2/2 8/2/2
f 7/1/2 8/1/2 9/1/2
f 9/1/2 8/1/2 10/1/2
f 13/2/3 12/2/3 11/2/3
f 14/2/3 12/2/3 13/2/3
f 15/2/3 13/2/3 11/2/3
f 15/3/3 14/3/3 13/3/3
f 16/3/3 14/3/3 15/3/3
f 17/2/3 15/2/3 11/2/3
f 18/1/3 16/1/3 15/1/3
f 18/2/3 15/2/3 17/2/3
f 19/1/3 16/1/3 18/1/3
f 20/2/4 21/2/4 22/2/4
f 22/2/4 21/2/4 23/2/4
f 20/2/4 22/2/4 24/2/4
f 22/3/4 23/3/4 24/3/4
f 24/3/4 23/3/4 25/3/4
f 20/2/4 24/2/4 26/2/4
f 24/1/4 25/1/4 27/1/4
f 26/2/4 24/2/4 27/2/4
f 27/1/4 25/1/4 28/1/4
f 31/2/5 30/2/5 29/2/5
f 32/2/5 30/2/5 31/2/5
f 33/2/6 34/2/6 37/2/6
f 34/3/6 35/3/6 38/3/6
f 37/2/6 34/2/6 38/2/6
f 35/1/6 36/1/6 39/1/6
f 38/3/6 35/3/6 39/3/6
f 39/1/6 36/1/6 40/1/6
